<svg width="106" height="106" viewBox="0 0 106 106" fill="none" xmlns="http://www.w3.org/2000/svg">
<circle cx="3" cy="3" r="3" fill="#BBC8D4"/>
<circle cx="43" cy="3" r="3" fill="#BBC8D4"/>
<circle cx="83" cy="3" r="3" fill="#BBC8D4"/>
<circle cx="23" cy="3" r="3" fill="#BBC8D4"/>
<circle cx="63" cy="3" r="3" fill="#BBC8D4"/>
<circle cx="103" cy="3" r="3" fill="#BBC8D4"/>
<circle cx="3" cy="43" r="3" fill="#BBC8D4"/>
<circle cx="43" cy="43" r="3" fill="#BBC8D4"/>
<circle cx="83" cy="43" r="3" fill="#BBC8D4"/>
<circle cx="23" cy="43" r="3" fill="#BBC8D4"/>
<circle cx="63" cy="43" r="3" fill="#BBC8D4"/>
<circle cx="103" cy="43" r="3" fill="#BBC8D4"/>
<circle cx="3" cy="23" r="3" fill="#BBC8D4"/>
<circle cx="43" cy="23" r="3" fill="#BBC8D4"/>
<circle cx="83" cy="23" r="3" fill="#BBC8D4"/>
<circle cx="23" cy="23" r="3" fill="#BBC8D4"/>
<circle cx="63" cy="23" r="3" fill="#BBC8D4"/>
<circle cx="103" cy="23" r="3" fill="#BBC8D4"/>
<circle cx="3" cy="63" r="3" fill="#BBC8D4"/>
<circle cx="43" cy="63" r="3" fill="#BBC8D4"/>
<circle cx="83" cy="63" r="3" fill="#BBC8D4"/>
<circle cx="23" cy="63" r="3" fill="#BBC8D4"/>
<circle cx="63" cy="63" r="3" fill="#BBC8D4"/>
<circle cx="103" cy="63" r="3" fill="#BBC8D4"/>
<circle cx="3" cy="83" r="3" fill="#BBC8D4"/>
<circle cx="3" cy="103" r="3" fill="#BBC8D4"/>
<circle cx="43" cy="83" r="3" fill="#BBC8D4"/>
<circle cx="83" cy="83" r="3" fill="#BBC8D4"/>
<circle cx="43" cy="103" r="3" fill="#BBC8D4"/>
<circle cx="83" cy="103" r="3" fill="#BBC8D4"/>
<circle cx="23" cy="83" r="3" fill="#BBC8D4"/>
<circle cx="23" cy="103" r="3" fill="#BBC8D4"/>
<circle cx="63" cy="83" r="3" fill="#BBC8D4"/>
<circle cx="103" cy="83" r="3" fill="#BBC8D4"/>
<circle cx="63" cy="103" r="3" fill="#BBC8D4"/>
<circle cx="103" cy="103" r="3" fill="#BBC8D4"/>
</svg>
