<svg width="140" height="302" viewBox="0 0 140 302" fill="none" xmlns="http://www.w3.org/2000/svg">
<circle cx="10" cy="52" r="10" fill="#BBC8D4"/>
<circle cx="90" cy="52" r="10" fill="#BBC8D4"/>
<circle cx="50" cy="92" r="10" fill="#BBC8D4"/>
<circle cx="130" cy="90" r="10" fill="#BBC8D4"/>
<circle cx="50" cy="12" r="10" fill="#BBC8D4"/>
<circle cx="130" cy="10" r="10" fill="#BBC8D4"/>
<circle cx="10" cy="132" r="10" fill="#BBC8D4"/>
<circle cx="90" cy="132" r="10" fill="#BBC8D4"/>
<circle cx="50" cy="172" r="10" fill="#BBC8D4"/>
<circle cx="130" cy="170" r="10" fill="#BBC8D4"/>
<circle cx="10" cy="92" r="10" fill="#BBC8D4"/>
<circle cx="90" cy="92" r="10" fill="#BBC8D4"/>
<circle cx="50" cy="132" r="10" fill="#BBC8D4"/>
<circle cx="130" cy="130" r="10" fill="#BBC8D4"/>
<circle cx="10" cy="172" r="10" fill="#BBC8D4"/>
<circle cx="90" cy="172" r="10" fill="#BBC8D4"/>
<circle cx="50" cy="212" r="10" fill="#BBC8D4"/>
<circle cx="130" cy="210" r="10" fill="#BBC8D4"/>
<circle cx="10" cy="212" r="10" fill="#BBC8D4"/>
<circle cx="90" cy="212" r="10" fill="#BBC8D4"/>
<circle cx="50" cy="252" r="10" fill="#BBC8D4"/>
<circle cx="130" cy="50" r="10" fill="#BBC8D4"/>
<circle cx="50" cy="292" r="10" fill="#BBC8D4"/>
<circle cx="130" cy="290" r="10" fill="#BBC8D4"/>
</svg>
