<svg width="102" height="56" viewBox="0 0 102 56" fill="none" xmlns="http://www.w3.org/2000/svg">
<circle cx="43" cy="3" r="3" fill="#C4C4C4"/>
<circle cx="39" cy="35" r="3" fill="#C4C4C4"/>
<circle cx="75" cy="3" r="3" fill="#C4C4C4"/>
<circle cx="71" cy="35" r="3" fill="#C4C4C4"/>
<circle cx="59" cy="3" r="3" fill="#C4C4C4"/>
<circle cx="55" cy="35" r="3" fill="#C4C4C4"/>
<circle cx="91" cy="3" r="3" fill="#C4C4C4"/>
<circle cx="87" cy="35" r="3" fill="#C4C4C4"/>
<circle cx="19" cy="19" r="3" fill="#C4C4C4"/>
<circle cx="83" cy="53" r="3" fill="#C4C4C4"/>
<circle cx="3" cy="19" r="3" fill="#C4C4C4"/>
<circle cx="3" cy="53" r="3" fill="#C4C4C4"/>
<circle cx="51" cy="19" r="3" fill="#C4C4C4"/>
<circle cx="51" cy="53" r="3" fill="#C4C4C4"/>
<circle cx="35" cy="19" r="3" fill="#C4C4C4"/>
<circle cx="35" cy="53" r="3" fill="#C4C4C4"/>
<circle cx="19" cy="53" r="3" fill="#C4C4C4"/>
<circle cx="67" cy="19" r="3" fill="#C4C4C4"/>
<circle cx="67" cy="53" r="3" fill="#C4C4C4"/>
<circle cx="99" cy="19" r="3" fill="#C4C4C4"/>
<circle cx="99" cy="53" r="3" fill="#C4C4C4"/>
</svg>
