<svg id="signature" xmlns="http://www.w3.org/2000/svg" viewBox="0 0 1000 600">
  <path d="M560,348.8c-3.27.63-6.74,1.43-10.1,2.28s-6.74,1.8-10.08,2.81-6.66,2.1-9.93,3.28-6.52,2.45-9.72,3.77h0l0,0a4.48,4.48,0,0,1-5-7.2c2.93-3.07,5.73-5.72,8.68-8.43s5.88-5.3,8.91-7.82c6-5.16,12.13-10,18.33-14.89s12.46-9.58,18.84-14.13l9.53-6.91,9.67-6.68,9.69-6.67c3.24-2.19,6.54-4.3,9.81-6.45,6.57-4.27,13.07-8.65,19.74-12.75l19.93-12.41,20.15-12,10.08-6,10.18-5.84L709,221.07c6.8-3.85,13.7-7.54,20.55-11.31s13.69-7.53,20.59-11.2l20.74-10.92c6.92-3.63,13.81-7.31,20.79-10.82l41.91-21a1.21,1.21,0,0,1,1.13,2.14h0l-41,22.64-40.74,23c-13.49,7.82-26.92,15.76-40.37,23.64l-20,12.07-10,6-9.91,6.2L652.84,264l-19.55,12.77c-6.57,4.17-13,8.61-19.43,12.94l-9.66,6.53-9.56,6.67-9.55,6.69-9.44,6.82c-6.35,4.49-12.48,9.23-18.68,13.89-3.09,2.35-6.09,4.8-9.14,7.18s-6.05,4.82-9,7.27-5.89,5-8.82,7.47c-1.45,1.26-2.84,2.56-4.28,3.83-.72.63-1.4,1.28-2.08,1.93s-1.39,1.3-2,1.89l-5.08-7.18h0c3.35-1.48,6.7-2.92,10.11-4.21S533.5,346,537,344.85s6.93-2.2,10.43-3.18,7-1.88,10.7-2.68a5,5,0,0,1,2.12,9.77l-.1,0Z"/>
  <path d="M843.08,150.63a9.78,9.78,0,0,0,1.26-2.08,5,5,0,0,0,.45-2.05,2.33,2.33,0,0,0-.55-1.44A5.45,5.45,0,0,0,843,144l-.05,0a3.06,3.06,0,0,1,3.53-5,3,3,0,0,1,.77.78,15.34,15.34,0,0,1,1.06,1.64,8.5,8.5,0,0,1,.74,1.92,7,7,0,0,1-.13,4.07,8.89,8.89,0,0,1-1.84,3,12.18,12.18,0,0,1-2.5,2.08,1.19,1.19,0,0,1-1.56-1.74Z"/>
  <path d="M337.63,377.6l-3.55-54.91-3.72-54.9a4.61,4.61,0,0,1,8.4-2.92,174.78,174.78,0,0,0,20.5,24.74q5.69,5.7,11.87,10.85c4.22,3.5,8.44,7,12.69,10.27,2.13,1.63,4.27,3.22,6.45,4.66,1.08.76,2.18,1.39,3.27,2.09s2.2,1.28,3.31,1.79c4.44,2.28,8.9,3.29,12.9,2.47s7.71-3.65,10.77-7.41a58,58,0,0,0,7.6-13.14c4.13-9.64,6.84-20.11,9.07-30.71,1.12-5.35,2.13-10.64,3-16s1.52-10.74,2.1-16.14,1-10.81,1.34-16.23.53-10.84.57-16.26-.06-10.82-.34-16.21-.77-10.75-1.47-16.06a136.5,136.5,0,0,0-3-15.69,88.16,88.16,0,0,0-5-14.85,54,54,0,0,0-7.88-12.86,33.75,33.75,0,0,0-11.32-8.83A39.12,39.12,0,0,0,401,117.93a66.46,66.46,0,0,0-15.34,1,109.44,109.44,0,0,0-15.29,4,149,149,0,0,0-14.9,5.87c-19.59,8.87-37.84,20.92-55,34.17A416.39,416.39,0,0,0,252.29,207a394.63,394.63,0,0,0-40.64,51c-12,18.08-22.43,37.3-29.83,57.57a175.07,175.07,0,0,0-8.29,31.07,129.1,129.1,0,0,0-1.65,15.89l-.1,4c0,1.33.05,2.65.07,4l.05,2,.1,2.05.24,4.06a152,152,0,0,0,5.15,31.69,90.26,90.26,0,0,0,13.35,28.52,69.85,69.85,0,0,0,10.53,11.53l3,2.48c1,.73,2,1.47,3.13,2.18a73.85,73.85,0,0,0,6.84,3.87,85.46,85.46,0,0,0,14.76,5.7,81,81,0,0,0,15.6,2.88l2,.19,2,.08c1.33,0,2.64.14,4,.11l8.09-.18c2.69-.18,5.38-.43,8.07-.63,1.35-.08,2.69-.29,4-.46l4-.54a201.86,201.86,0,0,0,31.63-7.38,240.26,240.26,0,0,0,58.49-28.49c2.24-1.54,4.55-3,6.74-4.6l6.57-4.86c2.19-1.62,4.25-3.4,6.38-5.1l3.17-2.57,3.06-2.7a228.36,228.36,0,0,0,23-23.17A230.72,230.72,0,0,0,451,332.64l3.27-7.43c.57-1.23,1-2.5,1.5-3.77l1.43-3.8,1.45-3.79c.5-1.26.84-2.57,1.28-3.85l2.47-7.73,2.06-7.85c.33-1.31.7-2.61,1-3.92l.81-4c.52-2.65,1.12-5.29,1.59-7.95l1.17-8c.17-1.34.44-2.67.53-4l.37-4c.22-2.7.54-5.38.68-8.09l.26-8.13.06-2,0-1c0-.2,0-.32,0-.44l0-.42a32.29,32.29,0,0,0-.36-3.71,42.13,42.13,0,0,0-4.84-14.33A37.38,37.38,0,0,0,456,212.93l-.74-.59-.79-.53-1.57-1.07-1.65-1-.82-.48-.86-.43-1.72-.86c-.58-.26-1.19-.49-1.78-.74a37.64,37.64,0,0,0-3.64-1.34A66.2,66.2,0,0,0,427,203a111,111,0,0,0-16,0,53.29,53.29,0,0,0-15.22,3.12,21,21,0,0,0-6.14,3.65,11.25,11.25,0,0,0-3.41,5.51,15.66,15.66,0,0,0-.06,6.89,30.89,30.89,0,0,0,2.38,7.14,60.75,60.75,0,0,0,3.79,6.87c1.44,2.22,3,4.4,4.63,6.51a131.16,131.16,0,0,0,10.8,12c7.77,7.69,15.84,15.37,23.27,23.67a169,169,0,0,1,20.09,26.93A101,101,0,0,1,463.44,337a81.09,81.09,0,0,1-.51,34.22c-.65,2.81-1.48,5.55-2.37,8.26s-1.93,5.35-3,7.95c-2.18,5.22-4.54,10.2-7,15.22a175.15,175.15,0,0,1-17.83,28.6,117.42,117.42,0,0,1-11.36,12.7,80.6,80.6,0,0,1-13.59,10.68,55.17,55.17,0,0,1-16.32,6.74l-1.09.25-1.11.18-2.22.34c-1.49.16-3,.25-4.49.3l-2.25,0-1.13,0c-.18,0-.39,0-.59,0l-.58,0c-1.49-.16-2.92-.38-4.36-.64A50.71,50.71,0,0,1,357,455.65a29.48,29.48,0,0,1-7.16-5.95,22.17,22.17,0,0,1-4.55-8.47,22.58,22.58,0,0,1-.48-9.51,37.71,37.71,0,0,1,2.52-8.62,82.53,82.53,0,0,1,8.44-14.88,256.59,256.59,0,0,1,21.07-25.87c7.41-8.22,15.08-16.17,22.81-24s15.6-15.6,23.5-23.3,15.81-15.39,23.77-23,16-15.16,24.26-22.51,16.53-14.57,24.77-21.82,16.43-14.57,23.78-22.43c1.82-2,3.57-4,5.18-6.05a42.31,42.31,0,0,0,4.19-6.4,15.38,15.38,0,0,0,1.89-6.49,8.55,8.55,0,0,0-2-5.63,14.48,14.48,0,0,0-5.44-4,25.38,25.38,0,0,0-7.07-2c-.62-.09-1.22-.13-1.83-.18s-1.17,0-1.76,0a18.25,18.25,0,0,0-3.5.51,23.06,23.06,0,0,0-6.65,3,37.6,37.6,0,0,0-10.63,10.9A48.05,48.05,0,0,0,485.75,243c-1.29,5-1.74,10.29-.55,15.07a16.44,16.44,0,0,0,1.21,3.41,14.74,14.74,0,0,0,1.87,3,14.89,14.89,0,0,0,5.61,4.25c4.47,2,9.82,2.13,15,1.51a75.89,75.89,0,0,0,15.55-3.8l-.2.08a63.77,63.77,0,0,0,6-3.34c2-1.23,3.87-2.54,5.7-4a52.6,52.6,0,0,0,9.81-9.56,30.06,30.06,0,0,0,5.84-12,24.31,24.31,0,0,0,.42-6.59,31.51,31.51,0,0,0-1.29-6.55h0l0-.14a1.57,1.57,0,0,1,1.11-1.93,1.37,1.37,0,0,1,.39-.06c6.25-.06,12.54-.51,18.78-1.09a182.78,182.78,0,0,0,18.57-2.64,87.32,87.32,0,0,0,9-2.28,33.26,33.26,0,0,0,8.21-3.7,9.64,9.64,0,0,0,2.91-2.84,4.5,4.5,0,0,0,.61-3.46,9.75,9.75,0,0,0-1.84-3.61,25.09,25.09,0,0,0-3.07-3.22h0a1.47,1.47,0,0,1,2-2.19,27.6,27.6,0,0,1,3.44,3.63,12.41,12.41,0,0,1,2.4,4.77,7.56,7.56,0,0,1-1,5.63,12.65,12.65,0,0,1-3.78,3.76,35.76,35.76,0,0,1-9,4.08,87.25,87.25,0,0,1-9.32,2.39,186.54,186.54,0,0,1-18.88,2.71c-6.33.63-12.63,1-19,1.26l1.47-2.13h0a26.87,26.87,0,0,1,1.38,14.93A33.75,33.75,0,0,1,548.8,252a56.7,56.7,0,0,1-10.37,10.45c-1.92,1.52-3.91,2.93-6,4.26a66.15,66.15,0,0,1-6.39,3.69l-.15.06,0,0a80.13,80.13,0,0,1-16.41,4.27,43.31,43.31,0,0,1-8.69.36,27.3,27.3,0,0,1-8.78-2,19.57,19.57,0,0,1-7.5-5.52,18.7,18.7,0,0,1-2.55-3.94,21.71,21.71,0,0,1-1.62-4.32,30.84,30.84,0,0,1-.94-8.92,43.45,43.45,0,0,1,1.23-8.69,53.49,53.49,0,0,1,6.84-15.93,43.15,43.15,0,0,1,12.14-12.7,28.86,28.86,0,0,1,8.33-3.82,24.8,24.8,0,0,1,4.64-.74c.79-.07,1.59,0,2.37,0s1.53.1,2.29.2a31.07,31.07,0,0,1,8.79,2.37,22.75,22.75,0,0,1,4.13,2.3,17.93,17.93,0,0,1,3.65,3.34,15.27,15.27,0,0,1,2.56,4.48,14.71,14.71,0,0,1,.88,5.12,21.19,21.19,0,0,1-2.52,9.29,47.94,47.94,0,0,1-4.78,7.43c-1.75,2.29-3.61,4.44-5.51,6.52-7.66,8.27-15.9,15.66-24.11,23-16.44,14.74-33.23,28.89-49.79,43.36q-12.42,10.84-24.39,22.18c-7.95,7.59-15.71,15.37-23.35,23.26q-5.76,5.9-11.33,11.95t-11,12.23a251.7,251.7,0,0,0-20,25.79,77.31,77.31,0,0,0-7.52,14,31.22,31.22,0,0,0-1.94,7.22,16.13,16.13,0,0,0,.48,6.85c1.29,4.35,4.68,7.87,9,10.28a44.66,44.66,0,0,0,14.4,4.82c1.27.21,2.57.39,3.81.5l.46,0a2.89,2.89,0,0,0,.43,0h.94l1.88,0c1.25-.08,2.49-.16,3.74-.3l1.85-.31.93-.14.92-.23a47.38,47.38,0,0,0,14-5.93c8.78-5.52,16.36-13.19,22.92-21.64a171.46,171.46,0,0,0,17.16-27.3c4.84-9.75,9.66-19.53,12.15-29.74a74.46,74.46,0,0,0,.79-31.32,94.2,94.2,0,0,0-11.23-29.72,156.93,156.93,0,0,0-19.09-26.11c-3.6-4.07-7.36-8-11.2-11.91s-7.8-7.69-11.72-11.62a137.3,137.3,0,0,1-11.24-12.56c-1.74-2.23-3.4-4.55-5-6.94a66,66,0,0,1-4.19-7.57,36.44,36.44,0,0,1-2.83-8.48,21.7,21.7,0,0,1,.11-9.48,17.18,17.18,0,0,1,5.07-8.39,26.51,26.51,0,0,1,7.91-4.85,60.28,60.28,0,0,1,17-3.72,117.45,117.45,0,0,1,17-.24,72.52,72.52,0,0,1,17,3c1.39.44,2.78.88,4.13,1.46.67.27,1.36.53,2,.83l2,1,1,.48,1,.55,1.92,1.1,1.86,1.23.93.62.88.68a44,44,0,0,1,11.76,13.32,49.4,49.4,0,0,1,5.88,16.71,38.25,38.25,0,0,1,.48,4.5l0,.61c0,.23,0,.45,0,.6l0,1,0,2.1-.21,8.38c-.13,2.79-.44,5.58-.64,8.37l-.35,4.19c-.1,1.39-.37,2.77-.55,4.16l-1.2,8.31c-.48,2.76-1.09,5.5-1.63,8.25l-.83,4.11c-.32,1.37-.7,2.71-1.05,4.07l-2.16,8.12a228.15,228.15,0,0,1-12.06,31.31,237.65,237.65,0,0,1-37.22,55.42c-.93,1-1.83,2.1-2.78,3.12l-2.9,3-2.89,3c-1,1-1.91,2-2.94,3l-6,5.77c-2,1.92-4.17,3.69-6.24,5.55A257.8,257.8,0,0,1,370,434.83a246.33,246.33,0,0,1-59.73,29.55,218.12,218.12,0,0,1-32.54,7.94l-4.16.61c-1.38.2-2.77.44-4.17.54-2.79.25-5.58.53-8.38.75l-8.42.3c-1.41,0-2.85,0-4.27-.07l-2.14-.06-2.13-.17a88,88,0,0,1-16.88-2.91,93.08,93.08,0,0,1-16.08-6,83.41,83.41,0,0,1-7.57-4.16c-1.23-.78-2.44-1.57-3.67-2.49s-2.26-1.79-3.4-2.69a77.21,77.21,0,0,1-11.86-12.65,98,98,0,0,1-15-30.78,159.54,159.54,0,0,1-5.73-33.34l-.28-4.18-.12-2.08-.07-2.13c0-1.43-.13-2.86-.11-4.28l.07-4.27a136.94,136.94,0,0,1,1.61-17c.37-2.81,1-5.57,1.51-8.35l.94-4.13c.31-1.38.64-2.75,1-4.11l1.11-4.08,1.22-4c.8-2.71,1.78-5.34,2.68-8,7.65-21.15,18.31-41,30.6-59.56a405.32,405.32,0,0,1,41.42-52.32,425.37,425.37,0,0,1,49.09-45.2c17.59-13.67,36.35-26.06,56.92-35.4a156.79,156.79,0,0,1,15.81-6.23A119.94,119.94,0,0,1,384,109.6a75.68,75.68,0,0,1,17.54-1.18,48.63,48.63,0,0,1,17.69,4.29A43.52,43.52,0,0,1,433.78,124a63.54,63.54,0,0,1,9.34,15.17,98,98,0,0,1,5.54,16.4,147.35,147.35,0,0,1,3.16,16.75c.74,5.6,1.27,11.22,1.54,16.82s.43,11.21.37,16.8c-.09,11.19-.79,22.34-2,33.43q-.9,8.31-2.19,16.6c-.86,5.52-1.93,11-3.08,16.47-2.32,10.92-5.14,21.89-9.71,32.51a66.71,66.71,0,0,1-9,15.32,35.23,35.23,0,0,1-6.89,6.54,24.76,24.76,0,0,1-9.22,4.1,25.05,25.05,0,0,1-10.1-.08,34.49,34.49,0,0,1-4.64-1.32c-1.44-.59-2.9-1.16-4.23-1.86s-2.64-1.42-3.95-2.14-2.51-1.54-3.68-2.36c-2.42-1.61-4.69-3.31-6.93-5-4.47-3.45-8.72-7-13-10.52s-8.51-7.45-12.49-11.45a184.21,184.21,0,0,1-21.55-26.08l8.41-2.92L343.49,322l4.11,54.88a5,5,0,1,1-10,.74Z"/>
  <path d="M639.52,196.84c-.19-3.34-.34-6.7-.38-10.1a92.5,92.5,0,0,1,.38-10.34,42.11,42.11,0,0,1,2.28-10.61,20.25,20.25,0,0,1,6.93-9.43l.19-.14a2,2,0,0,1,.46-.24,19.53,19.53,0,0,1,9.63-.93,26.14,26.14,0,0,1,8.66,2.91,32.85,32.85,0,0,1,12.48,12.16,1.53,1.53,0,0,1-2.54,1.7l0,0a29,29,0,0,0-11.94-9.65,20.93,20.93,0,0,0-7.18-1.68,13.67,13.67,0,0,0-6.62,1.24l.64-.38a13.63,13.63,0,0,0-3.88,6.73,34.68,34.68,0,0,0-1,8.79,130,130,0,0,0,1.84,19v0a5,5,0,0,1-9.91,1.48C639.54,197.15,639.53,197,639.52,196.84Z"/>
  <path d="M610.65,172a61.24,61.24,0,0,0-4.15-4.67c-1.46-1.5-3-3-4.51-4.39a116.91,116.91,0,0,0-9.72-8.2,5.16,5.16,0,1,1,7.76-6.3,117.57,117.57,0,0,0,6,11.21q1.62,2.71,3.36,5.32c1.18,1.73,2.39,3.43,3.72,5a1.59,1.59,0,1,1-2.44,2.05Z"/>
</svg>
