<svg id="Layer_1" data-name="Layer 1" xmlns="http://www.w3.org/2000/svg" viewBox="0 0 1000 1000"><defs><style>.cls-1{fill:#EA7C69;}</style></defs><path class="cls-1" d="M571.58,747.51,240.4,747h0A215.08,215.08,0,0,1,426.83,639.74h0c36.83.06,59.9-39.76,41.55-71.68L406.47,460.42h0c-16.51-28.7-57.89-28.76-74.49-.12L228.17,639.41,165.9,746.84h0C110.72,746.75,76.34,687,104,639.22h0l203.42-351h0c27.67-47.74,96.64-47.63,124.15.2h0L468.72,353,633.84,640.08h0C661.35,687.92,626.76,747.6,571.58,747.51Z"/><path class="cls-1" d="M709.65,684.55,649.36,580.13c-16.07-27.84,4-62.63,36.17-62.63h0l38.59,66.85a25.05,25.05,0,0,0,43.39,0L806.1,517.5h0a25.05,25.05,0,0,0-21.69-37.58H591.51c-16.07-27.83,4-62.62,36.16-62.62H864c32.14,0,52.23,34.79,36.16,62.63h0l-21.7,37.57L782,684.55h0C765.9,712.38,725.72,712.38,709.65,684.55Z"/></svg>