<svg width="25" height="25" viewBox="0 0 45 43" fill="none" xmlns="http://www.w3.org/2000/svg">
<path fill-rule="evenodd" clip-rule="evenodd" d="M22.6724 0.257062C10.6791 0.257062 0.955078 9.98106 0.955078 21.9771C0.955078 31.5731 7.17774 39.7131 15.8084 42.5864C16.8951 42.7851 17.2911 42.1144 17.2911 41.5384C17.2911 41.0237 17.2724 39.6571 17.2617 37.8451C11.2204 39.1571 9.94574 34.9331 9.94574 34.9331C8.95774 32.4237 7.53374 31.7557 7.53374 31.7557C5.56174 30.4091 7.68308 30.4357 7.68308 30.4357C9.86308 30.5891 11.0097 32.6744 11.0097 32.6744C12.9471 35.9931 16.0937 35.0344 17.3311 34.4784C17.5284 33.0757 18.0884 32.1184 18.7097 31.5757C13.8871 31.0277 8.81641 29.1637 8.81641 20.8411C8.81641 18.4704 9.66308 16.5317 11.0524 15.0131C10.8284 14.4637 10.0831 12.2557 11.2644 9.26506C11.2644 9.26506 13.0884 8.68106 17.2377 11.4917C18.9697 11.0091 20.8284 10.7691 22.6751 10.7611C24.5191 10.7691 26.3777 11.0091 28.1124 11.4917C32.2591 8.68106 34.0791 9.26506 34.0791 9.26506C35.2644 12.2557 34.5191 14.4637 34.2951 15.0131C35.6871 16.5317 36.5284 18.4704 36.5284 20.8411C36.5284 29.1851 31.4497 31.0211 26.6111 31.5584C27.3911 32.2291 28.0857 33.5544 28.0857 35.5811C28.0857 38.4837 28.0591 40.8264 28.0591 41.5384C28.0591 42.1197 28.4497 42.7957 29.5524 42.5837C38.1764 39.7051 44.3937 31.5704 44.3937 21.9771C44.3937 9.98106 34.6684 0.257062 22.6724 0.257062Z" fill="white"/>
</svg>
