<svg width="25" height="25" viewBox="0 0 25 25" fill="none" xmlns="http://www.w3.org/2000/svg">
<path d="M24 12.5C24 19.4036 19.4036 25 12.5 25C5.59644 25 1.5 19.4036 1.5 12.5C1.5 5.59644 5.59644 2 12.5 2C19.4036 2 24 5.59644 24 12.5Z" fill="#252836"/>
<path fill-rule="evenodd" clip-rule="evenodd" d="M12.4988 7.94672e-07C5.5964 7.94672e-07 0 5.73803 0 12.8167C0 18.4792 3.58129 23.2826 8.54845 24.9781C9.17385 25.0953 9.40176 24.6996 9.40176 24.3597C9.40176 24.056 9.39102 23.2495 9.38488 22.1803C5.90795 22.9545 5.17434 20.4619 5.17434 20.4619C4.60573 18.9812 3.78618 18.587 3.78618 18.587C2.65125 17.7924 3.87213 17.8081 3.87213 17.8081C5.12677 17.8986 5.7867 19.1291 5.7867 19.1291C6.90168 21.0874 8.71267 20.5217 9.42478 20.1936C9.53835 19.3659 9.86065 18.801 10.2182 18.4808C7.44268 18.1574 4.52439 17.0575 4.52439 12.1464C4.52439 10.7475 5.01166 9.6035 5.81126 8.70735C5.68234 8.3832 5.25338 7.08028 5.93327 5.31552C5.93327 5.31552 6.98303 4.97091 9.37107 6.62945C10.3679 6.34464 11.4376 6.20302 12.5004 6.1983C13.5616 6.20302 14.6314 6.34464 15.6297 6.62945C18.0162 4.97091 19.0637 5.31552 19.0637 5.31552C19.7458 7.08028 19.3169 8.3832 19.188 8.70735C19.9891 9.6035 20.4733 10.7475 20.4733 12.1464C20.4733 17.0701 17.5504 18.1535 14.7656 18.4706C15.2146 18.8663 15.6144 19.6484 15.6144 20.8443C15.6144 22.5571 15.599 23.9395 15.599 24.3597C15.599 24.7027 15.8238 25.1016 16.4585 24.9765C21.4218 23.2778 25 18.4777 25 12.8167C25 5.73803 19.4028 7.94672e-07 12.4988 7.94672e-07Z" fill="white"/>
</svg>
