<svg width="25" height="25" viewBox="0 0 21 21" fill="none" xmlns="http://www.w3.org/2000/svg">
<path fill-rule="evenodd" clip-rule="evenodd" d="M10.4489 0.139975C4.67813 0.139975 0 4.80934 0 10.5693C0 16.3293 4.67813 21 10.4489 21C16.2197 21 20.8979 16.3293 20.8979 10.5693C20.8979 4.80934 16.2197 0.139975 10.4489 0.139975Z" fill="white"/>
<path fill-rule="evenodd" clip-rule="evenodd" d="M14.2486 14.1154C14.2486 14.4607 13.8526 14.8474 13.5075 14.8474H7.25751C6.91103 14.8474 6.53361 14.4696 6.53361 14.1257V11C6.53361 10.6546 6.92944 10.2857 7.27534 10.2857H7.98893C7.93648 10.4864 7.89966 10.783 7.89966 11C7.89966 12.3799 9.01954 13.5 10.4 13.5C11.7811 13.5 12.9004 12.3799 12.9004 11C12.9004 10.783 12.8636 10.4953 12.8111 10.2945H13.5253C13.8706 10.2945 14.2486 10.6443 14.2486 10.9911V14.1154ZM10.4 9.74999C11.5514 9.74999 11.6498 11 11.6498 11C11.6498 11 11.6867 12.25 10.4 12.25C9.11382 12.25 9.15021 11 9.15021 11C9.15021 11 9.24906 9.74999 10.4 9.74999ZM12.2753 7.87425C12.2753 7.53039 12.5551 7.25 12.9004 7.25H13.5253C13.8706 7.25 14.1508 7.53039 14.1508 7.87425V8.49999C14.1508 8.84533 13.8706 9.12425 13.5253 9.12425H12.9004C12.5551 9.12425 12.2753 8.84533 12.2753 8.49999V7.87425ZM14.1508 6H6.65043C5.95982 6 5.40002 6.5608 5.40002 7.25V14.75C5.40002 15.4392 5.95982 16 6.65043 16H14.1508C14.8402 16 15.4 15.4392 15.4 14.75V7.25C15.4 6.5608 14.8402 6 14.1508 6Z" fill="#252836"/>
</svg>
