<svg width="25" height="25" viewBox="0 0 21 21" fill="none" xmlns="http://www.w3.org/2000/svg">
<path d="M21 10.5005C21 16.2994 16.2992 21 10.4996 21C4.70082 21 0 16.2994 0 10.5005C0 4.7017 4.70082 -7.81891e-07 10.4996 -7.81891e-07C16.2992 -7.81891e-07 21 4.7017 21 10.5005" fill="white"/>
<path d="M7.00122 6C7.55305 6 8 6.48591 8 7.08333C8 7.68074 7.55305 8.16712 7.00122 8.16712C6.44695 8.16712 6 7.68074 6 7.08333C6 6.48591 6.44695 6 7.00122 6ZM6.1372 8.98813H7.86403V15H6.1372V8.98813Z" fill="#252836"/>
<path d="M9 9.14559H11.1531V9.94605H11.1825C11.4834 9.48522 12.2154 9 13.3086 9C15.5816 9 16 10.2121 16 11.7889V15H13.7572V12.1532C13.7572 11.4742 13.7413 10.6007 12.5901 10.6007C11.4222 10.6007 11.2436 11.3409 11.2436 12.1037V15H9V9.14559" fill="#252836"/>
</svg>
