<svg width="258" height="138" viewBox="0 0 258 138" fill="none" xmlns="http://www.w3.org/2000/svg">
<path d="M148.754 90.6219C147.528 90.8593 146.227 91.1608 144.967 91.4811C143.707 91.8014 142.44 92.1594 141.187 92.54C139.935 92.9207 138.69 93.3314 137.464 93.7761C136.238 94.2208 135.019 94.6994 133.819 95.1968C133.464 95.347 133.069 95.37 132.699 95.2621C132.329 95.1541 132.007 94.9217 131.788 94.6038C131.568 94.2859 131.464 93.9017 131.492 93.5157C131.521 93.1298 131.68 92.7653 131.944 92.4835C133.043 91.3266 134.093 90.3279 135.199 89.3067C136.305 88.2854 137.404 87.3093 138.54 86.3597C140.79 84.4151 143.088 82.5912 145.413 80.7484C147.738 78.9055 150.085 77.1381 152.477 75.4234L156.051 72.8194L159.677 70.302L163.31 67.7884C164.525 66.9631 165.763 66.168 166.989 65.3577C169.452 63.7486 171.89 62.098 174.391 60.5529L181.864 55.8761L189.419 51.3539L193.199 49.0928L197.016 46.892L204.624 42.4866C207.174 41.0357 209.761 39.6451 212.33 38.2244C214.898 36.8037 217.463 35.3867 220.05 34.0036L227.827 29.8884C230.422 28.5205 233.006 27.1336 235.623 25.8109L251.338 17.897C251.39 17.869 251.448 17.8518 251.507 17.8462C251.567 17.8406 251.627 17.8469 251.683 17.8646C251.74 17.8822 251.793 17.911 251.839 17.9492C251.885 17.9874 251.923 18.0344 251.951 18.0873C251.979 18.1403 251.996 18.1982 252.001 18.2578C252.007 18.3175 252.001 18.3776 251.983 18.4348C251.965 18.492 251.937 18.5452 251.899 18.5913C251.861 18.6374 251.814 18.6755 251.761 18.7035L236.388 27.2354L221.112 35.903C216.053 38.85 211.017 41.8422 205.974 44.8118L198.475 49.3604L194.725 51.6215L191.009 53.958L183.566 58.6648L176.235 63.4772C173.772 65.0487 171.361 66.7219 168.95 68.3537L165.328 70.8145L161.743 73.3281L158.162 75.8493L154.622 78.4194C152.241 80.1115 149.943 81.8977 147.618 83.6539C146.459 84.5395 145.334 85.4628 144.191 86.3597C143.047 87.2566 141.922 88.1761 140.816 89.0994C139.71 90.0227 138.607 90.9836 137.509 91.9145C136.965 92.3893 136.444 92.8792 135.904 93.3578C135.634 93.5952 135.379 93.8402 135.124 94.0851C134.869 94.3301 134.603 94.575 134.374 94.7974L132.469 92.0916C133.725 91.5339 134.981 90.9912 136.26 90.505C137.539 90.0189 138.817 89.5667 140.13 89.1333C141.442 88.6999 142.728 88.3042 144.041 87.9349C145.353 87.5656 146.665 87.2264 148.053 86.9249C148.534 86.8316 149.032 86.9312 149.441 87.2022C149.85 87.4733 150.137 87.8944 150.24 88.3755C150.344 88.8565 150.257 89.3593 149.996 89.7763C149.736 90.1933 149.324 90.4914 148.848 90.6068H148.81L148.754 90.6219Z" fill="black"/>
<path d="M254.9 15.9413C255.089 15.7008 255.248 15.4375 255.372 15.1575C255.482 14.9149 255.54 14.6516 255.541 14.3849C255.536 14.1858 255.463 13.9944 255.335 13.8423C255.201 13.6864 255.044 13.5518 254.87 13.4428H254.851C254.602 13.2664 254.434 12.998 254.382 12.6965C254.33 12.3951 254.4 12.0854 254.576 11.8355C254.751 11.5857 255.018 11.4161 255.318 11.3642C255.618 11.3122 255.926 11.3821 256.175 11.5586C256.288 11.6379 256.386 11.7375 256.463 11.8525C256.609 12.0498 256.742 12.2562 256.861 12.4705C256.982 12.6995 257.075 12.9425 257.138 13.1941C257.274 13.6989 257.257 14.2328 257.09 14.7279C256.937 15.1472 256.702 15.5316 256.4 15.8584C256.124 16.1607 255.808 16.4243 255.462 16.6423C255.373 16.6959 255.269 16.7167 255.166 16.7012C255.064 16.6856 254.97 16.6347 254.901 16.5571C254.831 16.4795 254.791 16.3801 254.787 16.276C254.783 16.1719 254.815 16.0696 254.877 15.9866L254.9 15.9413Z" fill="black"/>
<path d="M65.3726 101.476L64.0415 80.7826L62.6466 60.0934C62.621 59.7134 62.7205 59.3355 62.9295 59.0179C63.1386 58.7002 63.4457 58.4604 63.8037 58.3354C64.1616 58.2103 64.5505 58.207 64.9106 58.3258C65.2706 58.4446 65.5818 58.679 65.7963 58.993C68.0683 62.3314 70.6415 65.4524 73.4832 68.3163C74.9055 69.7484 76.3892 71.1113 77.934 72.4052C79.5164 73.7242 81.0987 75.0432 82.6924 76.2755C83.491 76.8897 84.2935 77.4889 85.1109 78.0316C85.5159 78.318 85.9283 78.5554 86.337 78.8192C86.7458 79.083 87.162 79.3016 87.5782 79.4938C89.243 80.353 90.9154 80.7336 92.4153 80.4246C93.9151 80.1156 95.3063 79.0491 96.4537 77.6321C97.6153 76.1141 98.5734 74.4492 99.3034 72.6803C100.852 69.0474 101.868 65.1018 102.704 61.1072C103.124 59.091 103.503 57.0975 103.829 55.0775C104.155 53.0576 104.399 51.0301 104.617 48.9951C104.834 46.9601 104.992 44.9214 105.119 42.8788C105.247 40.8363 105.318 38.7938 105.333 36.7512C105.348 34.7087 105.31 32.6737 105.205 30.6425C105.1 28.6112 104.917 26.5913 104.654 24.5902C104.394 22.5989 104.019 20.6246 103.529 18.6774C103.071 16.7598 102.443 14.887 101.654 13.0812C100.9 11.3348 99.9054 9.70342 98.6997 8.23485C97.5387 6.83255 96.091 5.69767 94.4551 4.90725C92.7776 4.14596 90.9726 3.70874 89.1343 3.61842C87.2089 3.52001 85.2787 3.64647 83.3823 3.99527C81.4376 4.35822 79.5215 4.862 77.649 5.50268C75.7486 6.13886 73.8836 6.8773 72.062 7.7148C64.7164 11.0575 57.8733 15.5985 51.4388 20.5918C44.9941 25.6392 38.9536 31.1871 33.3729 37.1846C27.7744 43.1576 22.6775 49.586 18.1342 56.4041C13.6346 63.2175 9.7237 70.4606 6.94894 78.0994C5.55756 81.8982 4.51701 85.8177 3.84045 89.8082C3.51142 91.7895 3.30479 93.7894 3.22176 95.7964L3.18426 97.3038C3.18426 97.805 3.20301 98.3024 3.21051 98.8112L3.22925 99.5649L3.26675 100.337L3.35675 101.867C3.57915 105.906 4.22645 109.909 5.28783 113.81C6.31691 117.66 8.0113 121.298 10.2936 124.558C11.4441 126.15 12.7685 127.607 14.2421 128.903L15.367 129.837C15.7419 130.112 16.1169 130.391 16.5406 130.659C17.3692 131.19 18.2253 131.677 19.1054 132.117C20.8802 133.004 22.7329 133.723 24.6399 134.265C26.5497 134.819 28.5089 135.182 30.4894 135.351L31.2393 135.422L31.9893 135.452C32.488 135.452 32.9792 135.505 33.4891 135.494L36.5226 135.426C37.5313 135.358 38.5399 135.264 39.5486 135.189C40.0548 135.159 40.5573 135.079 41.0485 135.015L42.5483 134.812C46.5697 134.206 50.5359 133.276 54.4086 132.031C62.1697 129.468 69.548 125.856 76.3404 121.294C77.1803 120.714 78.0465 120.164 78.8677 119.561L81.3312 117.729C82.1524 117.119 82.9248 116.448 83.7235 115.807L84.9122 114.839L86.0596 113.821C89.1379 111.121 92.02 108.203 94.6838 105.09C100.025 98.8966 104.469 91.9757 107.883 84.5323L109.109 81.7323C109.323 81.2687 109.484 80.7901 109.671 80.3115L110.207 78.8795L110.751 77.4512C110.939 76.9764 111.066 76.4827 111.231 76.0004L112.157 73.0873L112.93 70.129C113.053 69.6353 113.192 69.1454 113.305 68.6517L113.608 67.1443C113.803 66.1457 114.028 65.1508 114.205 64.1484L114.643 61.1335C114.707 60.6286 114.808 60.1273 114.842 59.6261L114.981 58.1187C115.063 57.1012 115.183 56.0913 115.236 55.07L115.333 52.0062L115.356 51.2525V50.8756C115.356 50.8003 115.356 50.755 115.356 50.7098V50.5515C115.338 50.0833 115.293 49.6165 115.221 49.1534C114.945 47.258 114.33 45.4285 113.406 43.7531C112.495 42.0747 111.254 40.6001 109.758 39.4193L109.48 39.197L109.184 38.9973L108.595 38.594L107.976 38.2172L107.669 38.0363L107.346 37.8743L106.702 37.5502C106.484 37.4522 106.255 37.3655 106.034 37.2713C105.588 37.0795 105.132 36.9109 104.669 36.7663C102.79 36.1739 100.848 35.8083 98.8834 35.6772C96.8862 35.5322 94.8812 35.5322 92.884 35.6772C90.9347 35.7868 89.0119 36.183 87.177 36.853C86.337 37.176 85.5583 37.6412 84.8747 38.2285C84.255 38.7796 83.8104 39.5017 83.596 40.3049C83.3968 41.158 83.3891 42.045 83.5735 42.9015C83.7608 43.8316 84.0605 44.7352 84.4659 45.5922C84.8836 46.485 85.3584 47.3498 85.8871 48.1811C86.427 49.0178 87.012 49.8393 87.6232 50.6345C88.8794 52.224 90.2318 53.7343 91.6728 55.1567C94.5863 58.0547 97.6123 60.9489 100.398 64.0768C103.239 67.1997 105.762 70.5994 107.931 74.2254C110.131 77.9178 111.692 81.9584 112.547 86.1754C113.397 90.4387 113.332 94.8352 112.356 99.0712C112.112 100.13 111.801 101.163 111.467 102.184C111.134 103.205 110.744 104.2 110.342 105.18C109.525 107.147 108.64 109.024 107.718 110.916C105.839 114.716 103.6 118.325 101.032 121.694C99.7293 123.391 98.3057 124.99 96.7724 126.48C95.2222 128.001 93.5138 129.35 91.6766 130.504C89.7857 131.676 87.7194 132.533 85.5571 133.044L85.1484 133.139L84.7322 133.206L83.8998 133.335C83.341 133.395 82.7748 133.429 82.2161 133.448H81.3725H80.9488C80.8813 133.448 80.8025 133.448 80.7275 133.448H80.51C79.9513 133.387 79.4151 133.304 78.8752 133.206C76.676 132.808 74.5639 132.024 72.6357 130.889C71.6283 130.289 70.7221 129.532 69.951 128.647C69.1568 127.721 68.5744 126.631 68.2449 125.455C67.9321 124.286 67.8707 123.065 68.0649 121.871C68.25 120.754 68.5672 119.663 69.0098 118.622C69.8686 116.648 70.9292 114.769 72.1745 113.015C74.5948 109.596 77.2339 106.34 80.0751 103.266C82.8536 100.168 85.7296 97.1719 88.6281 94.2211C91.5266 91.2704 94.4776 88.3422 97.4398 85.4405C100.402 82.5387 103.368 79.6407 106.353 76.7729C109.338 73.9051 112.352 71.0598 115.45 68.29C118.547 65.5201 121.648 62.7992 124.737 60.0671C127.827 57.3349 130.898 54.5763 133.654 51.6143C134.337 50.8606 134.993 50.1069 135.596 49.3343C136.192 48.5797 136.717 47.7724 137.168 46.9225C137.581 46.1701 137.823 45.3347 137.876 44.4767C137.888 43.7018 137.622 42.9486 137.126 42.355C136.574 41.698 135.875 41.1815 135.087 40.8476C134.244 40.4685 133.351 40.2146 132.436 40.0939C132.203 40.06 131.978 40.0449 131.749 40.0261C131.521 40.0072 131.311 40.0261 131.089 40.0261C130.647 40.0473 130.207 40.1117 129.777 40.2183C128.891 40.4598 128.05 40.8414 127.283 41.3488C125.69 42.4305 124.334 43.8284 123.298 45.4565C122.224 47.0809 121.419 48.8688 120.913 50.7513C120.429 52.6355 120.26 54.6291 120.707 56.4304C120.81 56.8743 120.962 57.3052 121.16 57.7155C121.348 58.1193 121.583 58.4988 121.861 58.8461C122.425 59.5412 123.147 60.0904 123.965 60.4477C125.641 61.2014 127.647 61.2504 129.59 61.0167C131.578 60.7473 133.532 60.2673 135.42 59.5847L135.345 59.6148C136.117 59.2362 136.868 58.816 137.595 58.3561C138.345 57.8926 139.046 57.3989 139.732 56.8487C141.11 55.8141 142.346 54.6029 143.411 53.246C144.469 51.9226 145.217 50.3771 145.601 48.7238C145.765 47.907 145.818 47.0715 145.758 46.2404C145.684 45.4027 145.522 44.5752 145.274 43.772V43.772V43.7192C145.254 43.644 145.249 43.5655 145.258 43.4881C145.268 43.4108 145.293 43.3362 145.332 43.2686C145.371 43.201 145.422 43.1418 145.484 43.0943C145.545 43.0468 145.616 43.012 145.691 42.9919C145.738 42.9773 145.787 42.9697 145.837 42.9693C148.18 42.9467 150.539 42.7771 152.879 42.5585C155.215 42.3469 157.539 42.0148 159.842 41.5636C160.981 41.3376 162.108 41.0508 163.217 40.7044C164.301 40.382 165.337 39.913 166.295 39.3101C166.73 39.0353 167.102 38.6705 167.386 38.2398C167.509 38.049 167.593 37.8352 167.632 37.6112C167.672 37.3872 167.666 37.1575 167.615 36.9359C167.482 36.4389 167.247 35.9754 166.925 35.5755C166.578 35.1375 166.193 34.7314 165.774 34.362V34.362C165.665 34.262 165.6 34.1227 165.593 33.9747C165.587 33.8266 165.639 33.6819 165.738 33.5725C165.838 33.463 165.976 33.3978 166.124 33.3911C166.271 33.3844 166.415 33.4367 166.524 33.5367C166.994 33.9525 167.426 34.4104 167.814 34.9047C168.24 35.4311 168.547 36.0445 168.714 36.7022C168.87 37.4315 168.735 38.1933 168.339 38.8239C167.972 39.3921 167.489 39.8751 166.921 40.2409C165.873 40.9079 164.737 41.4253 163.547 41.7784C162.399 42.143 161.232 42.4437 160.052 42.6791C157.711 43.1406 155.348 43.4815 152.972 43.7004C150.599 43.9378 148.237 44.0772 145.848 44.1752L146.399 43.3725C147.099 45.1606 147.279 47.1121 146.917 48.9989C146.524 50.8703 145.717 52.6286 144.554 54.1429C143.434 55.6199 142.127 56.9438 140.666 58.0811C139.946 58.6539 139.2 59.1852 138.416 59.6864C137.644 60.1944 136.844 60.6587 136.02 61.077L135.964 61.0996C133.975 61.8532 131.913 62.3926 129.811 62.7088C128.732 62.8638 127.64 62.9092 126.552 62.8445C125.421 62.7781 124.308 62.5234 123.26 62.0907C122.17 61.6349 121.205 60.9213 120.448 60.0105C120.068 59.5579 119.747 59.0591 119.492 58.5257C119.232 58.0063 119.029 57.4605 118.884 56.8977C118.604 55.8005 118.486 54.668 118.532 53.5362C118.575 52.4318 118.73 51.3345 118.993 50.2614C119.517 48.1334 120.384 46.1057 121.558 44.2581C122.732 42.3659 124.282 40.7368 126.11 39.4721C127.068 38.8281 128.123 38.3421 129.233 38.0325C129.803 37.8844 130.386 37.7911 130.973 37.7537C131.269 37.7273 131.569 37.7537 131.862 37.7537C132.154 37.7537 132.436 37.7913 132.721 37.829C133.857 37.9625 134.967 38.2634 136.016 38.7222C136.561 38.9563 137.08 39.2467 137.565 39.5889C138.077 39.9429 138.538 40.3665 138.934 40.8476C139.347 41.3516 139.671 41.9225 139.894 42.5359C140.117 43.1543 140.228 43.8077 140.224 44.4654C140.18 45.6898 139.857 46.8877 139.279 47.9663C138.768 48.9531 138.168 49.8904 137.486 50.7664C136.83 51.6293 136.133 52.4396 135.42 53.2234C132.548 56.34 129.458 59.1249 126.38 61.891C120.215 67.4458 113.92 72.7783 107.71 78.2313C104.605 80.9547 101.557 83.7409 98.5647 86.5899C95.5837 89.4502 92.674 92.3821 89.8092 95.3555C88.3694 96.8377 86.9532 98.3389 85.5609 99.8588C84.1685 101.379 82.7936 102.915 81.4362 104.468C78.7299 107.541 76.2248 110.787 73.9369 114.187C72.8191 115.843 71.8742 117.611 71.1171 119.463C70.7671 120.337 70.5228 121.251 70.3897 122.184C70.2646 123.047 70.326 123.927 70.5697 124.765C71.0534 126.404 72.3245 127.731 73.9444 128.639C75.6278 129.55 77.4541 130.164 79.3439 130.455C79.8201 130.535 80.3076 130.602 80.7725 130.644H80.945C80.9987 130.648 81.0526 130.648 81.1062 130.644H81.4587H82.1637C82.6324 130.614 83.0973 130.584 83.566 130.531L84.2597 130.414L84.6084 130.361L84.9534 130.275C86.8115 129.818 88.5842 129.064 90.203 128.04C93.4952 125.96 96.3374 123.069 98.7972 119.885C101.259 116.666 103.413 113.222 105.232 109.597C107.046 105.922 108.854 102.237 109.787 98.3891C110.718 94.5204 110.819 90.497 110.084 86.5861C109.321 82.6401 107.897 78.8529 105.873 75.3861C103.83 71.8672 101.432 68.5698 98.7147 65.5465C97.3648 64.0127 95.955 62.5317 94.5151 61.0582C93.0752 59.5847 91.5903 58.1602 90.1205 56.6792C88.6205 55.1896 87.2129 53.6089 85.9058 51.9459C85.2534 51.1055 84.6309 50.2312 84.031 49.3305C83.4458 48.4152 82.9209 47.4622 82.4599 46.4778C81.977 45.4604 81.6206 44.387 81.3987 43.2821C81.1503 42.1027 81.1644 40.8828 81.44 39.7095C81.7547 38.4924 82.4153 37.3937 83.341 36.5477C84.2151 35.768 85.2191 35.1493 86.307 34.72C88.3532 33.9453 90.5004 33.4731 92.6815 33.3181C94.8013 33.1332 96.9317 33.103 99.0559 33.2277C101.218 33.3481 103.358 33.7276 105.43 34.3582C105.952 34.524 106.473 34.6899 106.979 34.9084C107.23 35.0102 107.489 35.1082 107.729 35.2212L108.479 35.5981L108.854 35.779L109.229 35.9862L109.949 36.4008L110.646 36.8643L110.995 37.0979L111.325 37.3542C113.119 38.7086 114.62 40.4167 115.734 42.3739C116.841 44.3223 117.588 46.4556 117.939 48.6711C118.033 49.2323 118.093 49.7985 118.119 50.3669V50.5968C118.119 50.6834 118.119 50.7664 118.119 50.8229V51.1997V51.9911L118.041 55.1491C117.992 56.2006 117.876 57.252 117.801 58.3034L117.669 59.8824C117.632 60.4062 117.531 60.9263 117.463 61.4501L117.013 64.5817C116.833 65.6219 116.604 66.6544 116.402 67.6908L116.091 69.2396C115.971 69.7559 115.828 70.2609 115.697 70.7734L114.887 73.8335C113.67 77.8727 112.158 81.8165 110.365 85.6327C106.714 93.2197 102.015 100.251 96.4087 106.518C96.0599 106.895 95.7225 107.309 95.3663 107.694L94.2788 108.824L93.1952 109.955C92.8202 110.332 92.479 110.708 92.0928 111.085L89.843 113.26C89.0931 113.983 88.2794 114.65 87.5032 115.351C84.342 118.131 81.004 120.7 77.5103 123.043C70.5811 127.757 63.0465 131.503 55.1135 134.179C51.1287 135.489 47.0495 136.489 42.9121 137.171L41.3522 137.401C40.8347 137.476 40.3135 137.567 39.7886 137.604C38.7424 137.699 37.6963 137.804 36.6463 137.887L33.4891 138C32.9604 138 32.4205 138 31.888 137.974L31.0856 137.951L30.2869 137.887C28.1466 137.729 26.0268 137.362 23.9575 136.79C21.8826 136.225 19.8642 135.468 17.928 134.529C16.9555 134.056 16.0081 133.533 15.0895 132.961C14.6283 132.668 14.1746 132.37 13.7133 132.023C13.2521 131.676 12.8659 131.349 12.4385 131.009C10.7827 129.593 9.2909 127.994 7.99135 126.242C5.45374 122.737 3.54985 118.811 2.36683 114.643C1.20962 110.543 0.489382 106.331 0.218266 102.078L0.113276 100.503L0.0682815 99.7194L0.042031 98.9167C0.042031 98.3778 -0.00671498 97.8389 0.000784367 97.3038L0.0270348 95.6946C0.0954629 93.5486 0.297088 91.4089 0.630733 89.2882C0.769471 88.2292 1.0057 87.1891 1.19693 86.1414L1.5494 84.585C1.66564 84.065 1.78938 83.5487 1.92437 83.0362L2.34058 81.4986L2.79804 79.9912C3.09802 78.9699 3.46548 77.9788 3.80295 76.9764C6.67145 69.006 10.6686 61.5255 15.277 54.5311C19.906 47.5409 25.1006 40.9463 30.8081 34.8142C36.4905 28.6606 42.6452 22.9652 49.2153 17.7805C55.8109 12.6289 62.8453 7.95975 70.5584 4.43996C72.4908 3.55023 74.4698 2.76649 76.4866 2.09217C78.5364 1.40374 80.6329 0.8647 82.7598 0.479244C84.9275 0.0747457 87.1347 -0.0744894 89.3368 0.034559C91.6294 0.149055 93.8799 0.69756 95.97 1.65125C98.0697 2.66208 99.9299 4.11278 101.426 5.90591C102.854 7.63678 104.033 9.5613 104.928 11.6228C105.8 13.6173 106.496 15.6855 107.005 17.8031C107.521 19.8825 107.917 21.9901 108.19 24.1154C108.468 26.2258 108.666 28.3437 108.768 30.454C108.869 32.5644 108.929 34.6785 108.906 36.7852C108.873 41.0021 108.61 45.204 108.156 49.3833C107.931 51.4711 107.658 53.5563 107.335 55.639C107.013 57.7193 106.612 59.7844 106.18 61.8458C105.31 65.961 104.253 70.0951 102.539 74.0973C101.676 76.1643 100.541 78.106 99.1647 79.8706C98.4182 80.8056 97.5491 81.6347 96.5811 82.3352C95.5465 83.0833 94.3697 83.6093 93.124 83.8803C91.8726 84.1288 90.584 84.1185 89.3368 83.8502C88.746 83.7254 88.1646 83.5592 87.5969 83.3527C87.057 83.1304 86.5095 82.9156 86.0108 82.6518C85.5121 82.388 85.0209 82.1167 84.5297 81.8453C84.0385 81.574 83.5885 81.265 83.1498 80.956C82.2424 80.3492 81.3912 79.7086 80.5513 79.0717C78.8752 77.7716 77.2816 76.4337 75.6767 75.1072C74.0718 73.7807 72.4857 72.2997 70.9934 70.7923C68.0056 67.7722 65.3007 64.4822 62.9128 60.964L66.0663 59.8636L67.5699 80.5226L69.111 101.204C69.1293 101.452 69.0988 101.7 69.0214 101.936C68.944 102.172 68.8212 102.389 68.66 102.577C68.4988 102.765 68.3023 102.919 68.0818 103.031C67.8613 103.143 67.6211 103.21 67.3749 103.228C67.1287 103.246 66.8813 103.216 66.6469 103.138C66.4125 103.06 66.1956 102.937 66.0086 102.775C65.8216 102.613 65.6682 102.415 65.5572 102.194C65.4461 101.972 65.3796 101.731 65.3614 101.483L65.3726 101.476Z" fill="black"/>
<path d="M178.572 33.3553C178.5 32.0966 178.444 30.8304 178.429 29.5491C178.404 28.2486 178.452 26.9476 178.572 25.6524C178.684 24.2882 178.971 22.9442 179.426 21.654C179.926 20.2383 180.83 19.0021 182.025 18.1003L182.096 18.0476C182.15 18.01 182.208 17.9796 182.269 17.9571C183.424 17.5378 184.666 17.4173 185.88 17.6067C187.018 17.7778 188.117 18.149 189.127 18.7033C191.069 19.7796 192.685 21.3628 193.806 23.2858C193.882 23.4127 193.907 23.5641 193.875 23.7086C193.843 23.8532 193.756 23.9797 193.634 24.0621C193.511 24.1444 193.362 24.1763 193.217 24.1511C193.072 24.1258 192.942 24.0454 192.854 23.9265V23.9265C191.714 22.3321 190.167 21.0758 188.377 20.2898C187.524 19.9203 186.612 19.706 185.685 19.6567C184.831 19.602 183.978 19.7626 183.202 20.124L183.442 19.9808C182.723 20.6665 182.217 21.5477 181.987 22.517C181.722 23.6006 181.596 24.7138 181.612 25.8296C181.668 28.2301 181.898 30.6232 182.302 32.9897V32.9897C182.376 33.485 182.251 33.9893 181.954 34.3918C181.658 34.7943 181.215 35.062 180.722 35.1359C180.229 35.2099 179.727 35.0841 179.327 34.7862C178.926 34.4883 178.66 34.0427 178.586 33.5475C178.579 33.4721 178.575 33.4156 178.572 33.3553Z" fill="black"/>
<path d="M167.746 23.9947C167.258 23.3818 166.738 22.7944 166.19 22.2348C165.643 21.6695 165.065 21.1042 164.499 20.5804C163.341 19.4846 162.124 18.4531 160.854 17.4902C160.617 17.3137 160.423 17.0851 160.288 16.8217C160.152 16.5583 160.078 16.2673 160.071 15.9708C160.065 15.6743 160.126 15.3802 160.25 15.111C160.374 14.8418 160.557 14.6047 160.786 14.4178C161.015 14.2309 161.284 14.0991 161.571 14.0325C161.859 13.966 162.158 13.9664 162.445 14.0338C162.733 14.1012 163.001 14.2337 163.23 14.4213C163.458 14.6089 163.641 14.8465 163.764 15.1161C164.438 16.564 165.189 17.9742 166.014 19.3406C166.419 20.0214 166.839 20.6897 167.274 21.3454C167.716 21.9974 168.17 22.638 168.669 23.2297C168.719 23.29 168.757 23.3598 168.781 23.435C168.805 23.5102 168.813 23.5893 168.806 23.6679C168.8 23.7465 168.778 23.8229 168.741 23.8929C168.705 23.9629 168.656 24.025 168.596 24.0757C168.535 24.1264 168.466 24.1648 168.391 24.1885C168.316 24.2123 168.238 24.221 168.16 24.2142C168.081 24.2074 168.005 24.1851 167.936 24.1488C167.866 24.1124 167.804 24.0626 167.754 24.0022L167.746 23.9947Z" fill="black"/>
</svg>
