<svg width="1810" height="413" viewBox="0 0 1810 413" fill="none" xmlns="http://www.w3.org/2000/svg">
<path d="M412.394 370.924C399.954 370.924 390.937 365.414 385.343 354.394C379.75 343.374 376.953 329.348 376.953 312.317C376.953 295.286 380.543 271.952 387.723 242.315C373.697 241.063 349.861 238.266 316.215 233.925C260.527 302.8 214.233 350.679 177.331 377.561C145.688 401.187 112.835 413 78.7719 413C57.1482 413 38.6137 407.573 23.1682 396.72C7.72273 385.951 0 369.922 0 348.633C0 344.626 1.00187 340.952 3.0056 337.613C5.00934 334.19 7.01308 333.272 9.01681 334.858C11.0205 336.444 12.0224 341.036 12.0224 348.633C12.0224 362.325 17.3657 372.552 28.0523 379.314C38.6554 386.16 51.5545 389.582 66.7495 389.582C99.6441 389.582 131.996 378.855 163.805 357.399C195.698 335.943 239.112 293.95 294.048 231.42C235.105 224.241 196.199 220.651 177.331 220.651C126.486 220.651 95.0522 237.264 83.0298 270.491C81.4435 274.916 80.6504 279.048 80.6504 282.889C80.6504 286.646 81.4435 290.027 83.0298 293.032C84.6161 296.038 84.9083 298.459 83.9064 300.295C82.9046 302.132 81.1931 302.925 78.7719 302.675C76.3507 302.508 74.347 301.214 72.7607 298.793C68.3357 291.195 66.1233 283.765 66.1233 276.502C66.1233 251.707 70.6317 233.382 79.6485 221.527C88.6653 209.756 99.1849 202.242 111.207 198.986C125.651 194.979 142.516 192.975 161.802 192.975C181.004 192.975 229.469 200.614 307.198 215.892C328.821 191.014 361.674 151.024 405.757 95.9242C449.839 40.8241 471.88 12.8567 471.88 12.0218H472.506C472.923 11.6879 473.925 11.1035 475.512 10.2686C485.113 4.67515 495.549 1.87843 506.82 1.87843C510.827 1.87843 512.831 3.88206 512.831 7.88934C512.831 8.30677 512.622 8.80766 512.205 9.39206C511.788 9.97645 511.37 10.7695 510.953 11.7714C510.619 12.7732 510.243 13.6915 509.826 14.5264C471.337 78.2254 441.49 149.939 420.284 229.667L418.405 233.925L433.433 234.426C436.689 234.843 442.408 235.052 450.59 235.052C458.772 235.052 467.497 233.173 476.764 229.417C485.948 225.576 491.834 221.444 494.422 217.019C497.094 212.594 499.431 211.593 501.435 214.014C503.439 216.435 503.606 219.065 501.936 221.903C497.594 229.918 489.788 235.72 478.517 239.31C468.916 243.317 459.398 245.321 449.964 245.321C440.53 245.321 434.435 245.321 431.68 245.321L415.4 244.694C407.802 279.591 404.003 307.35 404.003 327.971C404.003 348.591 409.597 358.902 420.785 358.902C431.638 358.902 448.503 350.303 471.379 333.105C494.171 315.824 515.586 293.575 535.624 266.359C536.876 264.772 538.504 264.355 540.508 265.106C542.512 265.941 543.513 266.943 543.513 268.112C543.513 269.364 543.179 270.867 542.512 272.62C541.927 274.457 538.838 278.965 533.244 286.145C516.379 308.602 495.758 329.849 471.379 349.885C453.679 363.911 434.018 370.924 412.394 370.924ZM445.456 68.6246C445.873 67.7898 446.374 66.6627 446.958 65.2435C447.543 63.8243 448.044 62.7389 448.461 61.9876C398.368 130.529 358.084 183.416 327.611 220.651L390.728 230.919C402 187.173 420.242 133.075 445.456 68.6246ZM607.132 370.924C586.761 370.924 576.575 358.61 576.575 333.982C576.575 309.353 594.191 279.007 629.424 242.941C632.262 240.103 634.266 237.89 635.435 236.304L639.693 230.293C645.286 222.696 647.875 217.896 647.457 215.892L645.704 210.382C644.034 205.623 637.397 202.117 625.792 199.863C614.187 197.692 604.794 196.607 597.614 196.607C561.547 247.533 540.675 276.586 534.998 283.765C529.404 290.945 525.605 293.95 523.601 292.782C521.598 291.613 520.596 290.194 520.596 288.524C520.596 286.938 521.806 284.558 524.227 281.386C545.851 254.921 564.469 226.662 580.082 196.607C575.323 195.772 571.733 194.061 569.312 191.473C566.89 188.885 566.682 184.502 568.685 178.324C570.689 172.062 576.826 163.714 587.095 153.278C597.28 142.926 606.172 135.914 613.769 132.24C621.367 128.65 626.167 126.48 628.171 125.728C630.175 124.893 632.387 124.476 634.809 124.476C639.651 124.476 638.065 131.697 630.05 146.14L606.631 183.333C624.665 184.585 640.068 185.211 652.842 185.211L673.881 184.585C680.728 184.585 685.737 185.504 688.909 187.34C692.166 189.093 692.959 192.182 691.289 196.607C688.534 204.204 681.521 214.431 670.25 227.288C646.205 255.339 628.171 285.185 616.149 316.825C613.394 324.422 612.016 331.018 612.016 336.611C612.016 348.299 616.232 354.143 624.665 354.143C627.42 354.143 632.721 351.931 640.569 347.506C648.334 343.081 661.442 332.562 679.893 315.949C698.344 299.335 713.163 283.014 724.351 266.985C726.02 264.981 727.941 264.48 730.111 265.482C732.282 266.484 733.367 267.486 733.367 268.488C733.367 269.489 732.992 270.575 732.24 271.743C726.229 282.597 715.417 296.413 699.805 313.194C684.109 330.058 668.872 343.708 654.095 354.143C639.651 365.33 623.997 370.924 607.132 370.924ZM774.945 189.344C784.964 189.344 790.975 192.558 792.979 198.986C793.73 202.576 793.229 206.083 791.476 209.505C789.639 212.928 788.303 215.642 787.468 217.645C786.717 219.649 786.132 221.235 785.715 222.404C783.711 226.411 781.708 230.251 779.704 233.925C756.828 279.591 744.805 308.644 743.637 321.083C743.219 324.673 743.01 329.265 743.01 334.858C743.01 340.452 744.638 345.043 747.894 348.633C753.488 355.061 761.503 355.479 771.939 349.885C782.292 344.292 796.819 333.063 815.521 316.199C834.139 299.419 849.25 283.014 860.855 266.985C862.441 264.981 864.236 264.48 866.24 265.482C868.244 266.484 869.246 267.486 869.246 268.488C869.246 269.489 868.87 270.575 868.119 271.743C862.107 282.597 851.254 296.413 835.558 313.194C809.927 340.827 788.512 357.858 771.313 364.287C761.294 367.876 752.862 369.671 746.016 369.671C729.986 369.671 719.383 362.074 714.207 346.88C713.372 344.041 712.954 340.619 712.954 336.611C712.954 322.586 719.383 301.381 732.24 272.996C730.237 277.337 722.43 287.355 708.822 303.05C705.148 307.058 702.309 307.058 700.306 303.05C699.972 302.215 699.805 301.088 699.805 299.669C699.805 298.25 700.598 296.539 702.184 294.535C721.804 270.157 737.208 249.536 748.395 232.673C747.644 230.669 748.061 228.081 749.648 224.908C757.663 202.451 764.676 190.596 770.687 189.344C771.856 189.344 773.275 189.344 774.945 189.344ZM822.408 109.449L817.524 128.734C817.524 132.324 814.936 138.126 809.76 146.14C804.584 154.155 800.576 158.162 797.737 158.162C780.539 158.162 771.939 153.946 771.939 145.514C771.939 143.928 780.539 136.498 797.737 123.224L808.007 115.46C814.352 109.866 818.359 107.069 820.029 107.069C821.615 107.069 822.408 107.863 822.408 109.449ZM1059.22 4.25773C1066.4 1.41925 1072.62 0 1077.88 0C1095.5 0 1107.11 4.84213 1112.7 14.5264C1115.96 19.285 1117.58 23.4593 1117.58 27.0491C1117.58 54.3487 1094.71 88.6193 1048.96 129.861C1008.55 165.509 971.311 196.19 937.248 221.903C925.977 247.115 914.33 278.172 902.307 315.072C916.751 297.373 934.993 276.92 957.034 253.711C1001.53 207.627 1032.59 184.585 1050.21 184.585C1059.06 184.585 1063.65 189.01 1063.98 197.859C1064.82 207.043 1062.94 215.85 1058.35 224.282C1053.76 232.714 1049.46 240.52 1045.45 247.7C1026.58 278.923 1017.15 306.765 1017.15 331.227C1017.15 339.241 1018.73 345.043 1021.91 348.633C1027.58 355.061 1035.6 355.479 1045.95 349.885C1056.39 344.292 1070.91 333.063 1089.53 316.199C1108.23 299.419 1123.39 283.014 1134.99 266.985C1136.99 264.981 1138.87 264.48 1140.63 265.482C1142.46 266.484 1143.38 267.486 1143.38 268.488C1143.38 269.489 1142.96 270.575 1142.13 271.743C1136.12 282.597 1125.31 296.33 1109.69 312.943C1094.08 329.557 1081.47 341.453 1071.87 348.633C1053.42 362.659 1035.76 369.671 1018.9 369.671C1003.7 369.671 993.519 362.074 988.343 346.88C987.09 343.29 986.464 338.991 986.464 333.982C986.464 328.972 986.882 323.671 987.717 318.078C989.72 301.214 1000.32 274.958 1019.53 239.31C1023.53 232.046 1025.54 226.912 1025.54 223.907C1025.54 220.901 1023.95 219.398 1020.78 219.398C1014.35 219.398 1001.91 227.413 983.459 243.442C971.019 255.13 952.693 277.087 928.481 309.312C904.269 341.537 890.535 358.651 887.279 360.655C872.836 367.918 863.944 371.55 860.605 371.55C857.182 371.55 855.261 371.049 854.844 370.047C854.426 369.045 854.635 367.751 855.47 366.165C856.221 364.495 859.436 355.646 865.113 339.617C883.898 286.353 896.714 251.123 903.56 233.925C890.285 250.705 873.838 269.74 854.218 291.029C851.045 294.201 849.459 293.491 849.459 288.9C849.459 284.308 851.254 279.591 854.844 274.749C858.434 269.907 865.948 260.598 877.386 246.823C888.824 232.965 896.922 222.654 901.681 215.892C898.091 213.888 896.213 211.05 896.046 207.377C895.795 203.787 897.006 201.282 899.677 199.863C902.266 198.527 906.565 199.028 912.577 201.366C916.584 195.772 920.174 189.594 923.347 182.832C971.019 80.229 1016.31 20.7043 1059.22 4.25773ZM1092.91 49.3396C1098.09 39.7388 1100.68 31.6408 1100.68 25.0455C1100.68 18.3667 1097.8 15.0273 1092.04 15.0273C1086.19 15.0273 1078.47 18.6589 1068.87 25.9221C1024.79 59.5665 984.92 115.877 949.27 194.854C975.319 177.99 1002.54 155.532 1030.92 127.482C1059.39 99.4306 1080.06 73.3833 1092.91 49.3396ZM1157.16 362.533C1150.81 362.533 1143.92 360.613 1136.49 356.773C1129.06 353.016 1122.76 347.631 1117.58 340.619C1112.32 333.606 1109.69 326.092 1109.69 318.078C1109.69 310.063 1111.49 302.424 1115.08 295.161C1123.09 278.381 1136.03 262.059 1153.9 246.197C1171.77 230.335 1190.3 216.81 1209.51 205.623C1228.71 194.436 1243.94 187.424 1255.22 184.585C1266.4 181.747 1277.3 180.327 1287.9 180.327C1298.59 180.327 1307.73 183.041 1315.33 188.467C1322.92 193.894 1326.72 199.612 1326.72 205.623C1326.72 207.627 1326.51 208.838 1326.1 209.255C1325.68 209.672 1324.68 209.464 1323.09 208.629C1318.33 201.032 1308.44 197.233 1293.41 197.233C1278.38 197.233 1261.35 202.117 1242.32 211.885C1223.28 221.736 1205.33 234.092 1188.47 248.952C1174.44 262.143 1162.13 277.045 1151.52 293.658C1140.92 310.272 1135.62 322.419 1135.62 330.099C1135.62 344.876 1139.79 352.265 1148.14 352.265C1156.57 352.265 1169.43 345.461 1186.71 331.853C1215.1 307.809 1234.51 290.194 1244.95 279.007C1281.85 239.268 1301.68 219.398 1304.43 219.398C1309.27 219.398 1315.12 220.818 1321.96 223.656C1328.73 226.495 1330.9 229.918 1328.48 233.925C1308.11 262.727 1296.08 291.78 1292.41 321.083C1292.08 324.673 1291.91 329.265 1291.91 334.858C1291.91 340.452 1293.5 345.043 1296.67 348.633C1302.68 355.061 1310.9 355.479 1321.34 349.885C1331.77 344.292 1346.3 333.063 1364.92 316.199C1383.54 299.419 1398.44 283.014 1409.63 266.985C1411.3 264.981 1413.13 264.48 1415.14 265.482C1417.14 266.484 1418.14 267.361 1418.14 268.112C1418.14 274.123 1408.63 287.272 1389.59 307.559C1370.56 327.762 1356.03 341.453 1346.01 348.633C1327.14 362.659 1309.69 369.671 1293.66 369.671C1278.47 369.671 1268.24 362.074 1262.98 346.88C1261.81 342.038 1261.23 336.611 1261.23 330.6C1261.23 312.568 1265.03 293.533 1272.62 273.497C1271.04 274.332 1263.61 282.346 1250.33 297.54C1237.14 312.818 1221.82 327.47 1204.37 341.495C1186.92 355.521 1171.18 362.533 1157.16 362.533ZM1568.93 185.211C1578.19 185.211 1582.83 190.095 1582.83 199.863C1582.83 209.714 1578.19 223.239 1568.93 240.437C1559.74 257.718 1552.94 271.744 1548.51 282.513C1540.91 300.963 1537.12 315.698 1537.12 326.718C1537.12 337.738 1538.7 345.043 1541.87 348.633C1547.89 355.061 1556.11 355.395 1566.55 349.635C1576.98 343.791 1591.51 332.562 1610.13 315.949C1628.75 299.335 1643.69 283.014 1654.96 266.985C1656.55 264.981 1658.43 264.48 1660.6 265.482C1662.85 266.484 1663.98 267.486 1663.98 268.488C1663.98 269.489 1663.56 270.575 1662.73 271.743C1656.71 282.597 1645.9 296.413 1630.29 313.194C1614.68 330.058 1599.65 343.582 1585.21 353.767C1570.76 364.036 1556.53 369.17 1542.5 369.17C1528.89 368.753 1519.29 365.622 1513.7 359.778C1508.1 354.018 1505.31 346.713 1505.31 337.864C1505.31 329.014 1506.1 320.499 1507.69 312.317C1509.27 304.136 1512.28 294.618 1516.7 283.765C1523.88 266.567 1530.19 253.126 1535.61 243.442C1541.04 233.841 1543.75 227.538 1543.75 224.533C1543.75 221.527 1542.13 220.025 1538.87 220.025C1532.52 220.025 1520.33 227.83 1502.3 243.442C1489.86 255.13 1471.49 277.087 1447.2 309.312C1422.99 341.537 1409.29 358.651 1406.12 360.655C1391.68 367.918 1382.66 371.55 1379.07 371.55C1375.4 371.55 1373.56 370.924 1373.56 369.671C1373.56 368.503 1373.98 366.833 1374.81 364.662C1375.65 362.408 1379.57 351.472 1386.59 331.853C1393.6 312.234 1401.2 290.695 1409.38 267.235C1417.56 243.776 1422.57 229.667 1424.41 224.908C1426.24 220.066 1427.45 215.934 1428.04 212.511C1428.62 209.088 1429.33 206.208 1430.17 203.87C1430.92 201.449 1432.42 198.736 1434.68 195.73C1436.85 192.725 1439.73 191.097 1443.32 190.847C1446.91 190.68 1451.54 191.097 1457.22 192.099C1462.81 193.101 1465.61 195.605 1465.61 199.613C1465.61 202.451 1463.4 208.545 1458.97 217.896C1454.55 227.329 1441.94 259.722 1421.15 315.072C1435.51 297.373 1453.71 277.003 1475.75 253.961C1497.79 230.919 1516.45 213.388 1531.73 201.366C1546.93 190.596 1559.32 185.211 1568.93 185.211ZM1736.11 188.217L1743.88 187.591C1774.77 184.752 1793.51 183.333 1800.11 183.333C1806.7 183.333 1810 184.335 1810 186.338C1810 188.759 1805.28 191.264 1795.85 193.852C1786.5 196.524 1763.58 199.863 1727.1 203.87C1725.09 207.46 1722.67 211.634 1719.83 216.393C1713.82 226.077 1710.61 231.921 1710.19 233.925C1687.4 279.591 1675.37 308.644 1674.12 321.083C1673.79 324.673 1673.62 329.265 1673.62 334.858C1673.62 340.452 1675.21 345.043 1678.38 348.633C1683.97 355.061 1691.99 355.479 1702.42 349.885C1712.86 344.292 1727.39 333.063 1746.01 316.199C1764.62 299.419 1779.73 283.014 1791.34 266.985C1793.01 264.981 1795.01 264.564 1797.35 265.733C1803.36 268.571 1792.97 284.391 1766.17 313.194C1740.54 340.827 1719.08 357.858 1701.8 364.287C1691.78 367.876 1683.39 369.671 1676.63 369.671C1660.6 369.671 1649.95 362.074 1644.69 346.88C1643.94 344.041 1643.56 340.619 1643.56 336.611C1643.56 322.586 1649.95 301.381 1662.73 272.996C1660.72 277.337 1652.92 287.355 1639.31 303.05C1635.72 307.058 1632.92 307.058 1630.92 303.05C1630.5 302.215 1630.29 301.088 1630.29 299.669C1630.29 298.25 1631.08 296.539 1632.67 294.535C1652.29 270.157 1667.73 249.536 1679.01 232.673C1679.01 232.255 1683.39 223.823 1692.15 207.377C1688.15 208.211 1684.06 208.629 1679.88 208.629C1675.71 208.629 1672.62 207.335 1670.61 204.747C1668.61 202.159 1668.4 199.028 1669.99 195.355C1672.74 189.01 1683.35 185.42 1701.8 184.585C1702.22 183.75 1703.01 183.333 1704.18 183.333L1734.23 127.482C1735.9 124.309 1737.74 121.011 1739.74 117.589C1741.75 114.166 1743.25 111.536 1744.25 109.699C1745.25 107.946 1746.34 106.068 1747.51 104.064C1748.68 102.06 1749.68 100.641 1750.51 99.8063C1751.35 99.0549 1752.14 98.2618 1752.89 97.4269C1754.48 95.0059 1759.2 93.7953 1767.04 93.7953C1774.89 93.7953 1780.19 96.0077 1782.95 100.432C1784.2 102.019 1784.83 104.732 1784.83 108.572C1784.83 112.329 1783.41 116.545 1780.57 121.22C1777.73 125.812 1774.73 129.109 1771.55 131.113C1768.38 133.117 1766.17 135.329 1764.92 137.75L1736.11 188.217Z" fill="#EA7C69"/>
</svg>
