<svg width="25" height="25" viewBox="0 0 25 25" fill="none" xmlns="http://www.w3.org/2000/svg">
<path d="M25 12.4997C25 19.4037 19.4031 25 12.5 25C5.59687 25 0 19.4037 0 12.4997C0 5.5963 5.59687 -6.83171e-08 12.5 -6.83171e-08C19.4031 -6.83171e-08 25 5.5963 25 12.4997Z" fill="white"/>
<path d="M9.84987 17.069L10.0952 17.216C10.9997 17.7547 12.0272 18.0392 13.0685 18.0392C16.2777 18.0392 18.8902 15.4267 18.8902 12.2168C18.8902 9.00592 16.2777 6.39341 13.0685 6.39341C9.85755 6.39341 7.24506 9.00592 7.24506 12.2168C7.24506 13.2771 7.53999 14.3207 8.09651 15.2357L8.24783 15.4835L7.66565 17.6545L9.84987 17.069ZM5.74646 19.5737L6.78941 15.6849C6.19869 14.6202 5.88836 13.4273 5.88836 12.2168C5.88836 8.25788 9.10954 5.03694 13.0685 5.03694C17.0265 5.03694 20.2477 8.25788 20.2477 12.2168C20.2477 16.1758 17.0265 19.3967 13.0685 19.3967C11.8793 19.3967 10.7056 19.0958 9.65495 18.5264L5.74646 19.5737" fill="#252836"/>
<path fill-rule="evenodd" clip-rule="evenodd" d="M15.7391 13.2153C15.4433 13.0383 15.0586 12.8413 14.7098 12.9832C14.4439 13.0924 14.273 13.5108 14.1003 13.7246C14.0114 13.8337 13.9054 13.8505 13.7686 13.7964C12.7658 13.3963 11.9981 12.7267 11.4442 11.805C11.351 11.6614 11.3672 11.5489 11.4809 11.416C11.6476 11.2189 11.8579 10.9952 11.9024 10.7307C11.9477 10.4652 11.8229 10.1553 11.7143 9.91921C11.5733 9.617 11.4177 9.1869 11.115 9.01592C10.8372 8.85896 10.4705 8.94744 10.2234 9.14852C9.79596 9.49681 9.58994 10.0418 9.59678 10.5821C9.59849 10.7357 9.61644 10.8894 9.65234 11.0369C9.73954 11.3936 9.90368 11.7266 10.0892 12.0431C10.2285 12.2819 10.3807 12.513 10.5448 12.736C11.0808 13.4641 11.7485 14.0969 12.5213 14.5702C12.9069 14.8065 13.3223 15.0143 13.7532 15.1562C14.2362 15.3158 14.6662 15.4818 15.1877 15.3826C15.7331 15.2791 16.2716 14.9418 16.4888 14.4158C16.552 14.2596 16.5845 14.0859 16.5486 13.9216C16.4742 13.5816 16.0135 13.3796 15.7391 13.2153" fill="#252836"/>
</svg>
